<mxfile host="app.diagrams.net" agent="Mozilla/5.0 (Windows NT 10.0; Win64; x64) AppleWebKit/537.36 (KHTML, like Gecko) Chrome/136.0.0.0 Safari/537.36" version="27.0.5">
  <diagram name="第 1 页" id="HjoFhgmBL_wtCJx5Wjd0">
    <mxGraphModel dx="1042" dy="562" grid="1" gridSize="10" guides="1" tooltips="1" connect="1" arrows="1" fold="1" page="1" pageScale="1" pageWidth="1200" pageHeight="1920" math="0" shadow="0">
      <root>
        <mxCell id="0" />
        <mxCell id="1" parent="0" />
        <mxCell id="k512X_VNwZL5-KmuskAI-3" style="edgeStyle=orthogonalEdgeStyle;rounded=0;orthogonalLoop=1;jettySize=auto;html=1;exitX=0.5;exitY=1;exitDx=0;exitDy=0;entryX=0.5;entryY=0;entryDx=0;entryDy=0;" edge="1" parent="1" source="k512X_VNwZL5-KmuskAI-1" target="k512X_VNwZL5-KmuskAI-2">
          <mxGeometry relative="1" as="geometry" />
        </mxCell>
        <mxCell id="k512X_VNwZL5-KmuskAI-1" value="配置网页防篡改策略" style="rounded=0;whiteSpace=wrap;html=1;" vertex="1" parent="1">
          <mxGeometry x="360" y="30" width="260" height="60" as="geometry" />
        </mxCell>
        <mxCell id="k512X_VNwZL5-KmuskAI-5" style="edgeStyle=orthogonalEdgeStyle;rounded=0;orthogonalLoop=1;jettySize=auto;html=1;exitX=0.5;exitY=1;exitDx=0;exitDy=0;" edge="1" parent="1" source="k512X_VNwZL5-KmuskAI-2" target="k512X_VNwZL5-KmuskAI-4">
          <mxGeometry relative="1" as="geometry" />
        </mxCell>
        <mxCell id="k512X_VNwZL5-KmuskAI-2" value="HTML页面解析" style="rounded=0;whiteSpace=wrap;html=1;" vertex="1" parent="1">
          <mxGeometry x="360" y="130" width="260" height="60" as="geometry" />
        </mxCell>
        <mxCell id="k512X_VNwZL5-KmuskAI-4" value="下载资源文件（HTML、JS、CSS、PNG等）" style="rounded=0;whiteSpace=wrap;html=1;" vertex="1" parent="1">
          <mxGeometry x="360" y="230" width="260" height="60" as="geometry" />
        </mxCell>
        <mxCell id="k512X_VNwZL5-KmuskAI-8" value="" style="strokeWidth=1;html=1;shape=mxgraph.flowchart.annotation_2;align=left;labelPosition=right;pointerEvents=1;direction=south;strokeColor=default;points=[[0,0.5,0,0,0],[0.5,0,0,0,0],[0.5,1,0,0,0],[1,0,0,0,0],[1,0.5,0,0,0],[1,1,0,0,0]];" vertex="1" parent="1">
          <mxGeometry x="235" y="290" width="525" height="130" as="geometry" />
        </mxCell>
        <mxCell id="k512X_VNwZL5-KmuskAI-12" value="提取DOM结构特征" style="rounded=0;whiteSpace=wrap;html=1;" vertex="1" parent="1">
          <mxGeometry x="432.5" y="420" width="130" height="60" as="geometry" />
        </mxCell>
        <mxCell id="k512X_VNwZL5-KmuskAI-19" value="提取文本语义特征" style="rounded=0;whiteSpace=wrap;html=1;" vertex="1" parent="1">
          <mxGeometry x="180" y="420" width="130" height="60" as="geometry" />
        </mxCell>
        <mxCell id="k512X_VNwZL5-KmuskAI-20" value="计算资源文件指纹" style="rounded=0;whiteSpace=wrap;html=1;" vertex="1" parent="1">
          <mxGeometry x="690" y="420" width="130" height="60" as="geometry" />
        </mxCell>
        <mxCell id="k512X_VNwZL5-KmuskAI-23" value="" style="endArrow=none;html=1;rounded=0;entryX=0.522;entryY=0.496;entryDx=0;entryDy=0;entryPerimeter=0;exitX=1;exitY=0.5;exitDx=0;exitDy=0;exitPerimeter=0;" edge="1" parent="1" source="k512X_VNwZL5-KmuskAI-8">
          <mxGeometry width="50" height="50" relative="1" as="geometry">
            <mxPoint x="498" y="417" as="sourcePoint" />
            <mxPoint x="497.5999999999999" y="354.8599999999999" as="targetPoint" />
            <Array as="points" />
          </mxGeometry>
        </mxCell>
        <mxCell id="k512X_VNwZL5-KmuskAI-24" value="" style="strokeWidth=1;html=1;shape=mxgraph.flowchart.annotation_2;align=left;labelPosition=right;pointerEvents=1;direction=north;strokeColor=default;points=[[0,0.5,0,0,0],[0.5,0,0,0,0],[0.5,1,0,0,0],[1,0,0,0,0],[1,0.5,0,0,0],[1,1,0,0,0]];" vertex="1" parent="1">
          <mxGeometry x="235" y="480" width="525" height="130" as="geometry" />
        </mxCell>
        <mxCell id="k512X_VNwZL5-KmuskAI-29" style="edgeStyle=orthogonalEdgeStyle;rounded=0;orthogonalLoop=1;jettySize=auto;html=1;exitX=0.5;exitY=1;exitDx=0;exitDy=0;" edge="1" parent="1" source="k512X_VNwZL5-KmuskAI-27" target="k512X_VNwZL5-KmuskAI-28">
          <mxGeometry relative="1" as="geometry" />
        </mxCell>
        <mxCell id="k512X_VNwZL5-KmuskAI-27" value="存储语义、DOM、指纹至Milvus向量数据库" style="rounded=0;whiteSpace=wrap;html=1;" vertex="1" parent="1">
          <mxGeometry x="367.5" y="610" width="260" height="60" as="geometry" />
        </mxCell>
        <mxCell id="k512X_VNwZL5-KmuskAI-31" value="" style="edgeStyle=orthogonalEdgeStyle;rounded=0;orthogonalLoop=1;jettySize=auto;html=1;" edge="1" parent="1" source="k512X_VNwZL5-KmuskAI-28" target="k512X_VNwZL5-KmuskAI-30">
          <mxGeometry relative="1" as="geometry" />
        </mxCell>
        <mxCell id="k512X_VNwZL5-KmuskAI-28" value="存储网页元信息至MySQL数据库" style="rounded=0;whiteSpace=wrap;html=1;" vertex="1" parent="1">
          <mxGeometry x="367.5" y="720" width="260" height="60" as="geometry" />
        </mxCell>
        <mxCell id="k512X_VNwZL5-KmuskAI-30" value="缓存资源文件用于后续还原与恢复" style="rounded=0;whiteSpace=wrap;html=1;" vertex="1" parent="1">
          <mxGeometry x="367.5" y="830" width="260" height="60" as="geometry" />
        </mxCell>
      </root>
    </mxGraphModel>
  </diagram>
</mxfile>
